<svg width="1440" height="900" viewBox="0 0 1440 900" fill="none" xmlns="http://www.w3.org/2000/svg">
<rect width="1440" height="900" fill="#EEEBDD"/>
<circle cx="181" cy="704" r="45" fill="#1B1717"/>
<circle cx="276" cy="446" r="30" fill="#1B1717"/>
<circle cx="444.5" cy="606.5" r="27.5" fill="#1B1717"/>
<circle cx="366.5" cy="721.5" r="17.5" fill="#D5CA9B"/>
<circle cx="534.5" cy="493.5" r="17.5" fill="#1B1717"/>
<ellipse cx="541.5" cy="681" rx="7.5" ry="7" fill="#D5CA9B"/>
<ellipse cx="238.5" cy="561" rx="7.5" ry="7" fill="#D5CA9B"/>
<ellipse cx="424.5" cy="457" rx="7.5" ry="7" fill="#D5CA9B"/>
<ellipse cx="391.5" cy="518" rx="7.5" ry="7" fill="#1B1717"/>
<ellipse cx="1352.5" cy="196" rx="7.5" ry="7" fill="#1B1717"/>
<ellipse cx="417.5" cy="794" rx="7.5" ry="7" fill="#1B1717"/>
<ellipse cx="268.5" cy="634" rx="7.5" ry="7" fill="#1B1717"/>
<circle cx="1350.5" cy="216.5" r="22.5" fill="#D5CA9B"/>
<circle cx="1313" cy="277" r="75" fill="#1B1717"/>
<circle cx="1249.5" cy="323.5" r="11.5" fill="#D5CA9B"/>
<ellipse cx="1241.5" cy="328" rx="7.5" ry="7" fill="#1B1717"/>
</svg>
